<?xml version="1.0" standalone="no"?><!DOCTYPE svg PUBLIC "-//W3C//DTD SVG 1.1//EN" "http://www.w3.org/Graphics/SVG/1.1/DTD/svg11.dtd"><svg t="1528187924274" class="icon" style="" viewBox="0 0 1024 1024" version="1.1" xmlns="http://www.w3.org/2000/svg" p-id="7639" xmlns:xlink="http://www.w3.org/1999/xlink" width="16" height="16"><defs><style type="text/css"></style></defs><path d="M246.033067 197.290667H307.2v4.778666h-61.166933v-4.778666zM315.8016 173.533867h57.890133v4.642133h-22.254933c-1.2288 2.594133-2.594133 5.188267-4.232533 7.7824v44.373333h-5.051734v-37.410133c-6.417067 7.645867-14.7456 14.472533-25.122133 20.48l-3.140267-4.096c15.428267-8.6016 26.077867-18.978133 32.085334-31.1296h-30.173867v-4.642133z m40.1408 17.6128c7.7824 5.870933 14.336 11.8784 19.6608 17.885866l-3.6864 3.6864c-4.778667-5.7344-11.195733-11.8784-19.524267-18.295466l3.549867-3.2768zM398.267733 188.142933c-3.2768 12.970667-7.509333 22.801067-12.834133 29.627734l-4.232533-3.549867c5.3248-6.826667 9.4208-16.110933 12.151466-27.8528l4.9152 1.774933z m0.8192 41.3696l-1.092266-4.9152c3.2768 0.273067 6.417067 0.4096 9.284266 0.4096 2.8672 0 4.232533-1.365333 4.232534-4.232533v-49.5616h5.051733v50.7904c0 5.051733-2.4576 7.645867-7.509333 7.645867h-9.966934z m32.904534-44.782933c5.461333 12.014933 9.557333 22.391467 12.424533 30.856533l-4.369067 2.8672c-3.003733-9.147733-7.099733-19.524267-12.424533-30.993066l4.369067-2.730667zM462.0288 191.829333c-1.911467 11.332267-4.642133 21.026133-8.192 29.0816l-4.232533-2.594133c3.413333-8.192 6.007467-17.339733 7.645866-27.4432l4.778667 0.955733z m12.424533 36.317867c-4.778667 0-7.099733-2.184533-7.099733-6.5536v-37.6832h4.9152v36.590933c0 1.911467 1.2288 3.003733 3.6864 3.003734h12.834133c1.6384 0 2.730667-0.682667 3.413334-1.911467 0.8192-1.6384 1.501867-6.280533 1.774933-13.789867l4.642133 1.501867c-0.546133 9.0112-1.501867 14.472533-2.8672 16.384-1.365333 1.6384-3.2768 2.4576-6.007466 2.4576h-15.291734z m2.184534-57.7536c6.417067 6.417067 11.195733 12.014933 14.472533 16.657067l-4.096 2.730666c-3.6864-5.461333-8.6016-11.0592-14.472533-16.930133l4.096-2.4576z m24.576 18.432a197.973333 197.973333 0 0 1 11.332266 27.170133l-4.5056 1.911467c-3.549867-10.513067-7.3728-19.6608-11.605333-27.716267l4.778667-1.365333zM548.0448 198.792533h4.642133v8.6016h19.524267v4.369067h-19.524267v12.970667c3.549867 0.4096 7.3728 0.546133 11.605334 0.546133 4.642133 0 9.8304-0.136533 15.291733-0.273067l-1.365333 4.778667h-13.653334c-11.605333-0.136533-19.524267-1.092267-23.7568-3.140267-3.549867-1.774933-6.690133-5.188267-9.4208-10.24-2.321067 5.051733-5.461333 9.693867-9.4208 13.9264l-3.6864-3.140266c7.236267-7.645867 11.195733-16.384 11.8784-25.941334l4.778667 0.546134c-0.273067 3.6864-0.955733 7.099733-1.911467 10.103466 2.8672 5.597867 6.280533 9.147733 9.966934 10.786134 1.365333 0.546133 3.003733 0.955733 4.9152 1.365333v-25.258667z m-23.893333-21.162666h22.391466v-7.645867h4.778667v7.645867H573.44v4.232533h-22.1184v10.376533h26.897067v4.5056h-58.436267v-4.5056h26.760533v-10.376533h-22.391466v-4.232533zM599.6544 171.2128c-0.4096 1.774933-1.092267 3.822933-1.911467 6.417067h12.834134v4.5056h-14.609067c-1.911467 4.642133-4.096 8.738133-6.5536 12.288l-3.959467-2.4576c4.5056-6.5536 7.645867-13.789867 9.557334-21.7088l4.642133 0.955733z m-6.826667 19.6608H608.938667v4.232533h-7.099734v8.055467h9.4208v4.369067h-9.4208v15.428266c3.140267-0.955733 6.5536-2.4576 9.966934-4.5056l0.8192 4.232534c-4.5056 2.321067-9.693867 4.232533-15.5648 5.870933l-2.048-4.096c1.365333-0.4096 2.048-1.092267 2.048-1.911467v-15.018666h-9.284267v-4.369067h9.284267v-8.055467h-4.232534v-4.232533z m19.933867-13.380267h7.3728v-7.509333h4.642133v7.509333h9.8304v-7.509333h4.642134v7.509333h7.645866v4.232534h-7.645866v8.328533h9.284266v4.369067h-37.546666v-4.369067h9.147733v-8.328533h-7.3728V177.493333z m31.266133 22.254934v30.72h-4.642133v-3.2768h-18.705067v3.140266h-4.642133v-30.583466h27.989333z m-23.3472 11.4688h18.705067v-7.236267h-18.705067v7.236267z m0 11.741866h18.705067v-7.509333h-18.705067v7.509333z m4.096-32.904533h9.8304v-8.328533h-9.8304v8.328533zM683.758933 191.965867c6.826667-3.6864 13.380267-8.192 19.797334-13.380267h-44.782934v-4.642133h51.473067v4.642133c-6.280533 5.461333-13.5168 10.786133-21.435733 15.701333v29.4912c0 3.959467-2.184533 6.007467-6.417067 6.007467-3.140267 0-6.690133-0.136533-10.786133-0.273067l-1.365334-4.642133c3.413333 0.273067 6.9632 0.4096 10.786134 0.4096 1.911467 0 2.730667-0.8192 2.730666-2.321067v-30.993066zM731.136 217.088c0.8192 0.682667 1.2288 1.6384 1.2288 2.730667s-0.4096 2.048-1.2288 2.8672c-0.8192 0.682667-1.774933 1.092267-2.8672 1.092266s-2.048-0.4096-2.8672-1.092266c-0.8192-0.8192-1.2288-1.774933-1.2288-2.8672s0.4096-2.048 1.2288-2.730667c0.8192-0.682667 1.774933-1.092267 2.8672-1.092267 1.092267-0.136533 2.048 0.273067 2.8672 1.092267zM749.1584 217.088c0.8192 0.682667 1.2288 1.6384 1.2288 2.730667s-0.4096 2.048-1.2288 2.8672c-0.8192 0.682667-1.774933 1.092267-2.8672 1.092266s-2.048-0.4096-2.8672-1.092266c-0.8192-0.8192-1.2288-1.774933-1.2288-2.8672s0.4096-2.048 1.2288-2.730667c0.8192-0.682667 1.774933-1.092267 2.8672-1.092267 1.092267-0.136533 2.048 0.273067 2.8672 1.092267zM767.044267 217.088c0.8192 0.682667 1.2288 1.6384 1.2288 2.730667s-0.4096 2.048-1.2288 2.8672c-0.8192 0.682667-1.774933 1.092267-2.8672 1.092266s-2.048-0.4096-2.8672-1.092266c-0.8192-0.8192-1.2288-1.774933-1.2288-2.8672s0.4096-2.048 1.2288-2.730667c0.8192-0.682667 1.774933-1.092267 2.8672-1.092267 1.092267-0.136533 2.184533 0.273067 2.8672 1.092267z" fill="#484848" p-id="7640"></path><path d="M493.568 613.034667m-211.626667 0a211.626667 211.626667 0 1 0 423.253334 0 211.626667 211.626667 0 1 0-423.253334 0Z" fill="#F9F9F9" p-id="7641"></path><path d="M546.816 576.170667m-211.626667 0a211.626667 211.626667 0 1 0 423.253334 0 211.626667 211.626667 0 1 0-423.253334 0Z" fill="#F4F4F4" p-id="7642"></path><path d="M512.8192 809.915733c-23.620267 0-46.830933-3.959467-69.085867-11.605333-1.501867-0.546133-2.321067-2.321067-1.774933-3.822933 0.546133-1.501867 2.184533-2.321067 3.6864-1.774934 21.572267 7.509333 44.2368 11.332267 67.037867 11.332267 112.093867 0 203.1616-91.204267 203.1616-203.1616 0-21.572267-3.413333-43.144533-10.103467-63.624533-0.546133-1.501867 0.273067-3.2768 1.911467-3.822934 1.501867-0.546133 3.2768 0.273067 3.822933 1.911467 6.9632 21.162667 10.513067 43.281067 10.513067 65.536 0 115.234133-93.7984 209.032533-209.169067 209.032533z m-108.270933-30.583466c-0.546133 0-1.092267-0.136533-1.501867-0.4096-62.2592-38.5024-99.396267-104.994133-99.396267-178.039467 0-115.370667 93.7984-209.169067 209.169067-209.169067 71.68 0 137.6256 36.0448 176.264533 96.529067 0.8192 1.365333 0.546133 3.2768-0.955733 4.096s-3.2768 0.546133-4.096-0.955733c-37.546667-58.709333-101.5808-93.7984-171.349333-93.7984-112.093867 0-203.1616 91.204267-203.1616 203.1616 0 70.997333 36.0448 135.714133 96.529066 172.987733 1.365333 0.8192 1.774933 2.730667 0.955734 4.096-0.4096 0.955733-1.365333 1.501867-2.4576 1.501867z" fill="#444440" p-id="7643"></path><path d="M340.923733 815.104c-14.199467 0-25.3952-3.959467-33.041066-11.741867-15.9744-16.110933-15.018667-46.557867 2.4576-87.927466 0.682667-1.501867 2.4576-2.184533 3.959466-1.501867 1.365333 0.682667 2.048 2.321067 1.501867 3.822933-16.247467 38.5024-17.6128 67.447467-3.6864 81.5104 28.398933 28.672 117.282133-7.3728 211.3536-85.879466 1.365333-0.955733 3.140267-0.8192 4.232533 0.546133 0.955733 1.2288 0.8192 3.003733-0.4096 3.959467-46.421333 38.775467-93.525333 68.8128-132.437333 84.514133-21.026133 8.465067-39.048533 12.6976-53.930667 12.6976z m289.1776-200.567467c-1.6384 0-3.003733-1.365333-3.003733-3.003733 0-0.682667 0.273067-1.365333 0.682667-1.911467 78.6432-93.115733 113.732267-178.312533 85.469866-206.984533-14.062933-14.199467-43.554133-13.1072-83.012266 3.413333-1.501867 0.682667-3.2768-0.136533-3.822934-1.6384-0.682667-1.501867 0.136533-3.2768 1.6384-3.822933 42.461867-17.6128 73.3184-18.295467 89.429334-2.048 31.1296 31.402667-3.140267 117.828267-85.060267 214.903467-0.682667 0.8192-1.501867 1.092267-2.321067 1.092266z" fill="#444440" p-id="7644"></path><path d="M571.528533 730.180267L514.730667 675.293867l5.7344-6.007467 33.041066 1.501867 38.229334-39.458134c5.188267-5.3248 12.151467-8.738133 20.0704-9.693866h0.273066c5.3248-0.682667 10.786133 4.642133 10.376534 9.966933v0.273067c-0.682667 7.918933-3.822933 15.018667-9.0112 20.343466l-38.229334 39.458134 1.911467 32.3584c0.273067 0.136533-5.597867 6.144-5.597867 6.144z" fill="#DB5A49" p-id="7645"></path><path d="M272.7936 480.187733c0 2.594133 2.048 4.642133 4.642133 4.642134s4.642133-2.048 4.642134-4.642134-2.048-4.642133-4.642134-4.642133-4.642133 2.048-4.642133 4.642133zM510.225067 344.610133c0 2.594133 2.048 4.642133 4.642133 4.642134s4.642133-2.048 4.642133-4.642134-2.048-4.642133-4.642133-4.642133-4.642133 2.048-4.642133 4.642133zM760.763733 502.852267c0 2.594133 2.048 4.642133 4.642134 4.642133s4.642133-2.048 4.642133-4.642133-2.048-4.642133-4.642133-4.642134-4.642133 2.184533-4.642134 4.642134z" fill="#444440" p-id="7646"></path><path d="M547.908267 720.4864c-1.911467 0-3.822933-0.8192-5.188267-2.184533l-14.472533-13.9264c-1.6384-1.6384-2.594133-3.959467-2.321067-6.007467 0.136533-1.774933 1.092267-3.2768 2.594133-4.232533l22.664534-14.336c2.4576-1.6384 6.007467-1.092267 8.465066 1.365333l5.3248 5.188267c2.4576 2.321067 3.140267 5.870933 1.6384 8.328533l-13.653333 23.210667c-0.8192 1.501867-2.321067 2.4576-4.096 2.730666-0.273067-0.136533-0.682667-0.136533-0.955733-0.136533z m-1.092267-6.5536c0.273067 0.273067 0.682667 0.546133 1.092267 0.546133l13.5168-22.9376s-0.136533-0.546133-0.682667-1.092266l-5.3248-5.188267c-0.546133-0.546133-1.092267-0.546133-1.2288-0.546133L531.797333 699.050667c0.136533 0.4096 0.273067 0.8192 0.546134 0.955733l14.472533 13.9264z" fill="#AAAAAA" p-id="7647"></path><path d="M272.7936 480.187733c0 2.594133 2.048 4.642133 4.642133 4.642134s4.642133-2.048 4.642134-4.642134-2.048-4.642133-4.642134-4.642133-4.642133 2.048-4.642133 4.642133zM510.225067 344.610133c0 2.594133 2.048 4.642133 4.642133 4.642134s4.642133-2.048 4.642133-4.642134-2.048-4.642133-4.642133-4.642133-4.642133 2.048-4.642133 4.642133zM758.442667 502.852267c0 3.822933 3.140267 6.9632 6.9632 6.9632s6.9632-3.140267 6.9632-6.9632-3.140267-6.9632-6.9632-6.9632-6.9632 3.140267-6.9632 6.9632zM787.933867 707.106133c0 4.369067 3.549867 7.7824 7.7824 7.7824 4.369067 0 7.7824-3.549867 7.7824-7.7824s-3.549867-7.7824-7.7824-7.7824-7.7824 3.413333-7.7824 7.7824z" fill="#DB5A49" p-id="7648"></path><path d="M306.3808 376.0128l9.693867-9.693867c1.092267-1.2288 1.092267-3.140267-0.136534-4.232533-1.092267-1.092267-2.8672-1.092267-4.096 0l-9.693866 9.693867-9.693867-9.693867c-1.2288-1.092267-3.140267-1.092267-4.232533 0.136533-1.092267 1.092267-1.092267 2.8672 0 4.096l9.693866 9.693867-9.693866 9.693867c-1.092267 1.2288-1.092267 3.140267 0.136533 4.232533 1.092267 1.092267 2.8672 1.092267 3.959467 0l9.693866-9.693867 9.693867 9.693867c1.092267 1.2288 3.003733 1.2288 4.232533 0 1.2288-1.2288 1.2288-3.003733 0-4.232533 0.136533-0.136533-9.557333-9.693867-9.557333-9.693867zM257.501867 693.179733l9.693866-9.693866c1.092267-1.2288 1.092267-3.140267-0.136533-4.232534-1.092267-1.092267-2.8672-1.092267-4.096 0l-9.693867 9.693867-9.693866-9.693867c-1.2288-1.092267-3.140267-1.092267-4.232534 0.136534-1.092267 1.092267-1.092267 2.8672 0 4.096l9.693867 9.693866-9.693867 9.693867c-1.092267 1.2288-1.092267 3.140267 0.136534 4.232533 1.092267 1.092267 2.8672 1.092267 3.959466 0l9.693867-9.693866 9.693867 9.693866c1.092267 1.2288 3.003733 1.2288 4.232533 0 1.2288-1.2288 1.2288-3.003733 0-4.232533l-9.557333-9.693867z" fill="#5F5F5F" p-id="7649"></path><path d="M544.768 716.117333l-14.472533-13.9264c-1.911467-1.774933-2.048-4.5056-0.273067-5.597866l22.664533-14.336c1.365333-0.8192 3.2768-0.4096 4.778667 0.955733l5.3248 5.188267c1.501867 1.365333 1.911467 3.413333 1.092267 4.778666l-13.653334 23.210667c-0.955733 1.6384-3.549867 1.501867-5.461333-0.273067z" fill="#F9F9F9" p-id="7650"></path><path d="M604.296533 646.7584L575.8976 673.109333l7.7824 10.24 28.945067-29.764266-8.328534-6.826667z" fill="#FFFFFF" p-id="7651"></path><path d="M621.636267 622.318933c-2.730667-2.730667-6.280533-3.959467-9.8304-3.549866h-0.273067c-8.6016 1.092267-16.247467 4.642133-21.845333 10.513066l-37.2736 38.5024-31.675734-1.501866c-0.8192 0-1.6384 0.273067-2.321066 0.955733l-5.7344 6.007467c-1.092267 1.2288-1.092267 3.003733 0 4.232533l56.797866 54.8864c0.546133 0.546133 1.365333 0.8192 2.048 0.8192 0.8192 0 1.501867-0.273067 2.048-0.955733l5.7344-6.007467c0.546133-0.546133 0.8192-1.365333 0.8192-2.184533l-1.911466-31.1296 37.2736-38.5024c5.597867-5.870933 9.0112-13.5168 9.8304-22.254934v-0.273066c0.546133-3.413333-0.955733-6.9632-3.6864-9.557334z m-41.7792 51.2l24.576-22.801066 3.6864 3.140266-24.1664 24.9856c-0.136533 0-4.096-5.3248-4.096-5.3248z m39.7312-41.7792c-0.546133 6.9632-3.140267 12.970667-7.3728 17.749334L606.208 644.437333c-1.092267-0.955733-2.8672-0.955733-3.959467 0.136534l-28.398933 26.350933c-1.092267 1.092267-1.2288 2.730667-0.4096 3.959467l6.144 8.192-6.417067 6.690133c-0.546133 0.546133-0.8192 1.365333-0.8192 2.184533l1.911467 31.1296-2.730667 2.8672-52.4288-50.7904 2.730667-2.8672 31.675733 1.501867c0.8192 0 1.6384-0.273067 2.321067-0.955733l38.229333-39.458134c4.642133-4.778667 11.0592-7.918933 18.295467-8.738133h0.273067c1.6384-0.136533 3.413333 0.546133 4.9152 1.911467 1.501867 1.365333 2.184533 3.2768 2.048 4.9152v0.273066z" fill="#444440" p-id="7652"></path><path d="M564.974933 686.216533l-5.3248-5.188266c-2.4576-2.321067-5.870933-2.8672-8.465066-1.365334l-22.664534 14.336c-1.501867 0.955733-2.321067 2.4576-2.594133 4.232534-0.273067 2.184533 0.682667 4.369067 2.321067 6.007466l14.472533 13.9264c1.501867 1.365333 3.413333 2.184533 5.188267 2.184534h0.8192c1.6384-0.273067 3.2768-1.2288 4.096-2.730667l13.653333-23.210667c1.501867-2.321067 0.955733-5.7344-1.501867-8.192z m-17.066666 28.2624c-0.4096-0.136533-0.8192-0.273067-1.092267-0.546133L532.48 700.0064c-0.273067-0.273067-0.546133-0.682667-0.546133-0.955733l2.4576-1.501867 15.291733 14.336-1.774933 2.594133z m3.549866-6.007466l-13.9264-13.1072 16.7936-10.6496c0.136533 0 0.682667 0 1.2288 0.546133l5.3248 5.188267c0.546133 0.546133 0.682667 0.955733 0.682667 1.092266l-10.103467 16.930134z" fill="#444440" p-id="7653"></path><path d="M916.138667 846.506667H151.552c-2.594133 0-4.778667-2.184533-4.778667-4.778667v-2.730667c0-2.594133 2.184533-4.778667 4.778667-4.778666h764.586667c2.594133 0 4.778667 2.184533 4.778666 4.778666v2.730667c0 2.594133-2.184533 4.778667-4.778666 4.778667z" fill="#F4F4F4" p-id="7654"></path><path d="M557.329067 843.093333c2.594133 0 2.594133-4.096 0-4.096-2.730667 0-2.730667 4.096 0 4.096zM864.256 857.429333H99.669333c-2.594133 0-4.778667-2.184533-4.778666-4.778666v-2.730667c0-2.594133 2.184533-4.778667 4.778666-4.778667h764.586667c2.594133 0 4.778667 2.184533 4.778667 4.778667v2.730667c0 2.594133-2.184533 4.778667-4.778667 4.778666z" fill="#F4F4F4" p-id="7655"></path></svg>